<svg xmlns="http://www.w3.org/2000/svg" viewBox="0 0 590 146.63"><defs><style>.cls-1{fill:#fff;}.cls-2{fill:#579553;}</style></defs><title>Asset 7</title><g id="Layer_2" data-name="Layer 2"><g id="Layer_1-2" data-name="Layer 1"><path class="cls-1" d="M129.8,142.83V87.37H118.35V77.21H129.8V67.56q0-8.76,4.89-13.64t13.77-5h16.21V59.06h-13.9a8.54,8.54,0,0,0-6.69,2.58,9.35,9.35,0,0,0-2.31,6.69v8.88H162.1V87.37H141.77v55.46Z"/><path class="cls-1" d="M204.66,144.38a35.19,35.19,0,0,1-17.88-4.51,34.38,34.38,0,0,1-12.23-12.35,35.4,35.4,0,0,1-4.37-17.5,34.69,34.69,0,0,1,4.37-17.37A33.17,33.17,0,0,1,186.78,80.3a34.48,34.48,0,0,1,17.88-4.64,33.8,33.8,0,0,1,17.76,4.64,31.9,31.9,0,0,1,12.23,12.35,33.87,33.87,0,0,1,4.5,17.37,34.56,34.56,0,0,1-4.5,17.5,33,33,0,0,1-12.23,12.35A34.49,34.49,0,0,1,204.66,144.38Zm0-10.17A21.48,21.48,0,0,0,216.5,131a22.31,22.31,0,0,0,7.85-8.63A26.64,26.64,0,0,0,227.18,110a25.88,25.88,0,0,0-2.83-12.22,22,22,0,0,0-7.85-8.75,21.4,21.4,0,0,0-11.84-3.22,21.79,21.79,0,0,0-11.83,3.22A22,22,0,0,0,185,97.8,25.88,25.88,0,0,0,182.15,110,26.64,26.64,0,0,0,185,122.37a22.31,22.31,0,0,0,7.85,8.63A21.87,21.87,0,0,0,204.66,134.21Z"/><path class="cls-1" d="M257.81,142.83v-47q0-8.76,4.89-13.64t13.76-5H290V87.37H278.65A8.53,8.53,0,0,0,272,90a9.35,9.35,0,0,0-2.32,6.69v46.19Z"/><path class="cls-2" d="M330.29,142.83a26.62,26.62,0,0,1-13.64-3.6,27.36,27.36,0,0,1-9.65-9.65,26.59,26.59,0,0,1-3.6-13.64,23,23,0,0,1,2.31-10.17A27.34,27.34,0,0,1,312,97.41a27.34,27.34,0,0,1-6.31-8.36,22.73,22.73,0,0,1-2.31-10,25.72,25.72,0,0,1,3.47-13.25,27,27,0,0,1,9.52-9.4,25.46,25.46,0,0,1,13.26-3.6h37.06V69h-35a9.66,9.66,0,0,0-7.08,3,9.91,9.91,0,0,0,7.08,17h30.62v16.21H332.48a10.77,10.77,0,0,0-10.68,10.81,10.55,10.55,0,0,0,10.68,10.68h34.23v16.21Z"/><path class="cls-2" d="M410,144.38a26.94,26.94,0,0,1-15.7-4.63,31.18,31.18,0,0,1-10.42-12.36,40.86,40.86,0,0,1-3.61-17.24,37.15,37.15,0,0,1,4.12-17.5,31,31,0,0,1,12.1-12.35q7.84-4.64,18.78-4.64t18.66,4.64a30.46,30.46,0,0,1,11.58,12.48,37.76,37.76,0,0,1,4,17.37v32.68H431.85V131.9h-.25a28.59,28.59,0,0,1-8.11,8.88Q418.47,144.38,410,144.38Zm5-15.06c5.14,0,9.18-1.88,12.09-5.66a21.43,21.43,0,0,0,4.51-13.77,20.73,20.73,0,0,0-4.51-13.51A14.44,14.44,0,0,0,415,90.72q-7.86,0-12.36,5.66a20.72,20.72,0,0,0-4.5,13.51,21.42,21.42,0,0,0,4.5,13.77Q407.16,129.33,415,129.32Z"/><path class="cls-2" d="M501.56,142.83a37.09,37.09,0,0,1-18.15-4.37,34,34,0,0,1-12.61-11.71A31.15,31.15,0,0,1,466.17,110a30.49,30.49,0,0,1,4.63-16.6,33.65,33.65,0,0,1,12.61-11.84,37.2,37.2,0,0,1,18.15-4.37h8.23V92.26h-8.23q-8.1,0-12.87,5.15A17.87,17.87,0,0,0,484.06,110a18.15,18.15,0,0,0,4.63,12.61q4.76,5.15,12.87,5.15h8.23v15.05Z"/><path class="cls-2" d="M525.92,142.83V48.9h17.63V81.84a25.41,25.41,0,0,1,8.88-4.76,32.93,32.93,0,0,1,9.39-1.42q9.52,0,15.7,4a24.64,24.64,0,0,1,9.39,10.68,34.89,34.89,0,0,1,3.09,14.8v37.7H572.37v-37.7A14.51,14.51,0,0,0,558,90.72a14.17,14.17,0,0,0-7.21,1.93,14.71,14.71,0,0,0-5.27,5,12.8,12.8,0,0,0-1.93,7v38.21Z"/><path class="cls-2" d="M108.83,23V0l56.31,41.18S123.39,29.31,118,67.34c1-14.24-1.35-20.07-13.59-25C66.58,27,0,73.49,0,73.49S54.76,24.29,108.83,23Z"/><path class="cls-1" d="M89.67,58.17,23.58,75.6a11.43,11.43,0,0,0-5.21,19.11l48.14,48.53a11.43,11.43,0,0,0,19.15-5.05l18-65.95A11.44,11.44,0,0,0,89.67,58.17ZM84.24,85.08l-9.06,33.3a5.72,5.72,0,0,1-9.58,2.52L41.3,96.41a5.72,5.72,0,0,1,2.6-9.56l33.37-8.8A5.72,5.72,0,0,1,84.24,85.08Z"/></g></g></svg>